<svg xmlns="http://www.w3.org/2000/svg" width="75" viewBox="0 0 75 37.5" height="37.5" version="1.0"><defs><clipPath id="a"><path d="M 10.585938 8.5625 L 24.644531 8.5625 L 24.644531 28.546875 L 10.585938 28.546875 Z M 10.585938 8.5625"/></clipPath></defs><path fill="#FF914D" d="M 17.753906 4.835938 C 10.191406 4.835938 4.0625 10.964844 4.0625 18.527344 C 4.0625 26.089844 10.191406 32.222656 17.753906 32.222656 C 25.316406 32.222656 31.445312 26.089844 31.445312 18.527344 C 31.445312 10.964844 25.316406 4.835938 17.753906 4.835938"/><g clip-path="url(#a)"><path fill="#FFF" d="M 14.886719 8.5625 C 14.886719 8.5625 17.679688 12.476562 15.730469 14.863281 C 14.609375 16.238281 13.835938 16.984375 13.382812 17.367188 C 12.65625 17.988281 12.027344 18.722656 11.550781 19.558594 C 10.289062 21.78125 9.332031 25.605469 15.007812 28.546875 C 15.007812 28.546875 11.730469 25.273438 16.089844 20.402344 C 16.089844 20.402344 16.089844 23.550781 17.03125 23.945312 C 17.96875 24.339844 18.765625 21.3125 18.765625 21.3125 C 18.765625 21.3125 21.585938 26.257812 19.585938 28.425781 C 19.585938 28.425781 27.148438 26.726562 23.777344 17.570312 C 23.777344 17.570312 23.390625 19.539062 21.609375 19.835938 C 21.609375 19.835938 23.992188 11.050781 14.886719 8.5625"/></g><g><g><g><path d="M 2.878906 0 L 2.878906 -2.691406 C 4.808594 -2.636719 6.117188 -3.292969 6.117188 -5.429688 C 6.117188 -7.589844 4.621094 -8.222656 2.683594 -8.222656 L 0.652344 -8.222656 L 0.652344 0 Z M 3.871094 -5.460938 C 3.871094 -4.851562 3.488281 -4.515625 2.878906 -4.546875 L 2.878906 -6.445312 L 3.042969 -6.453125 C 3.585938 -6.453125 3.871094 -5.984375 3.871094 -5.460938 Z M 3.871094 -5.460938" transform="translate(34.29 15.126)"/></g></g></g><g><g><g><path d="M 3.957031 -8.222656 L 3.957031 -3.042969 C 3.957031 -2.835938 3.96875 -2.550781 3.902344 -2.324219 C 3.847656 -2.105469 3.707031 -1.929688 3.390625 -1.929688 C 3.085938 -1.929688 2.945312 -2.105469 2.878906 -2.332031 C 2.8125 -2.550781 2.824219 -2.835938 2.824219 -3.054688 L 2.824219 -8.222656 L 0.601562 -8.222656 L 0.601562 -2.847656 C 0.601562 -1.855469 0.816406 0.140625 3.390625 0.140625 C 5.964844 0.140625 6.183594 -1.855469 6.183594 -2.847656 L 6.183594 -8.222656 Z M 3.957031 -8.222656" transform="translate(40.657 15.126)"/></g></g></g><g><g><g><path d="M 0.445312 -0.195312 C 0.96875 0.0234375 1.546875 0.140625 2.117188 0.140625 C 3.664062 0.140625 4.730469 -1.078125 4.730469 -2.605469 C 4.730469 -3.226562 4.589844 -3.664062 4.328125 -4.035156 C 4.078125 -4.40625 3.707031 -4.710938 3.238281 -5.039062 C 3.117188 -5.136719 2.953125 -5.246094 2.835938 -5.375 C 2.714844 -5.507812 2.617188 -5.660156 2.617188 -5.832031 C 2.617188 -6.148438 2.933594 -6.335938 3.195312 -6.335938 C 3.707031 -6.335938 4.242188 -5.867188 4.503906 -5.453125 L 4.503906 -7.949219 C 4.035156 -8.199219 3.457031 -8.363281 2.921875 -8.363281 C 1.023438 -8.363281 0.414062 -6.617188 0.414062 -5.660156 C 0.414062 -5.058594 0.589844 -4.601562 0.863281 -4.21875 C 1.144531 -3.828125 1.527344 -3.511719 1.960938 -3.171875 C 2.105469 -3.074219 2.234375 -2.976562 2.332031 -2.855469 C 2.441406 -2.738281 2.507812 -2.59375 2.507812 -2.398438 C 2.507812 -2.039062 2.160156 -1.855469 1.855469 -1.855469 C 1.285156 -1.855469 0.753906 -2.3125 0.445312 -2.769531 Z M 0.445312 -0.195312" transform="translate(47.438 15.126)"/></g></g></g><g><g><g><path d="M 6.160156 0 L 6.160156 -8.222656 L 3.9375 -8.222656 L 3.9375 -5.277344 L 2.878906 -5.277344 L 2.878906 -8.222656 L 0.652344 -8.222656 L 0.652344 0 L 2.878906 0 L 2.878906 -3.335938 L 3.9375 -3.335938 L 3.9375 0 Z M 6.160156 0" transform="translate(52.584 15.126)"/></g></g></g><g><g><g><path d="M 2.878906 0 L 2.878906 -2.691406 C 4.808594 -2.636719 6.117188 -3.292969 6.117188 -5.429688 C 6.117188 -7.589844 4.621094 -8.222656 2.683594 -8.222656 L 0.652344 -8.222656 L 0.652344 0 Z M 3.871094 -5.460938 C 3.871094 -4.851562 3.488281 -4.515625 2.878906 -4.546875 L 2.878906 -6.445312 L 3.042969 -6.453125 C 3.585938 -6.453125 3.871094 -5.984375 3.871094 -5.460938 Z M 3.871094 -5.460938" transform="translate(35.48 29.705)"/></g></g></g><g><g><g><path d="M 3.957031 -8.222656 L 3.957031 -3.042969 C 3.957031 -2.835938 3.96875 -2.550781 3.902344 -2.324219 C 3.847656 -2.105469 3.707031 -1.929688 3.390625 -1.929688 C 3.085938 -1.929688 2.945312 -2.105469 2.878906 -2.332031 C 2.8125 -2.550781 2.824219 -2.835938 2.824219 -3.054688 L 2.824219 -8.222656 L 0.601562 -8.222656 L 0.601562 -2.847656 C 0.601562 -1.855469 0.816406 0.140625 3.390625 0.140625 C 5.964844 0.140625 6.183594 -1.855469 6.183594 -2.847656 L 6.183594 -8.222656 Z M 3.957031 -8.222656" transform="translate(41.846 29.705)"/></g></g></g><g><g><g><path d="M 4.546875 0 L 4.546875 -1.941406 L 2.878906 -1.941406 L 2.878906 -8.222656 L 0.652344 -8.222656 L 0.652344 0 Z M 4.546875 0" transform="translate(48.627 29.705)"/></g></g></g><g><g><g><path d="M 4.546875 0 L 4.546875 -1.941406 L 2.878906 -1.941406 L 2.878906 -8.222656 L 0.652344 -8.222656 L 0.652344 0 Z M 4.546875 0" transform="translate(53.424 29.705)"/></g></g></g></svg>